<svg xmlns="http://www.w3.org/2000/svg" width="75" height="63" viewBox="0 0 75 63" fill="none">
  <path d="M0.0040555 10.5017C0.00359067 9.91061 0.119595 9.32519 0.345441 8.77891C0.571288 8.23263 0.902551 7.7362 1.32031 7.31798C3.00784 5.76189 4.91907 4.46751 6.99031 3.47798C11.8241 1.13794 17.1339 -0.0518417 22.5041 0.00173223C29.8653 0.00173223 35.2541 3.59048 40.0016 6.75173C44.2203 9.56423 47.8766 12.0017 52.5041 12.0017C62.2916 12.0017 67.1591 7.47548 67.3616 7.28423C67.7728 6.87093 68.2629 6.54445 68.8027 6.32414C69.3425 6.10383 69.9211 5.9942 70.5041 6.00173C71.3946 6.00103 72.2653 6.26457 73.006 6.75899C73.7467 7.25341 74.324 7.95647 74.6649 8.77918C75.0057 9.60188 75.0949 10.5072 74.9209 11.3806C74.747 12.254 74.3179 13.0561 73.6878 13.6855C72.0003 15.2416 70.089 16.536 68.0178 17.5255C63.184 19.8655 57.8742 21.0553 52.5041 21.0017C45.1428 21.0017 39.7541 17.413 35.0066 14.2517C30.7878 11.4392 27.1316 9.00173 22.5041 9.00173C12.7166 9.00173 7.87906 13.5017 7.68781 13.6855C7.05846 14.3155 6.25632 14.7447 5.38293 14.9186C4.50955 15.0925 3.6042 15.0034 2.7815 14.6625C1.9588 14.3216 1.25573 13.7443 0.761314 13.0037C0.266895 12.263 0.00335468 11.3923 0.0040555 10.5017ZM70.5041 48.0017C69.9211 47.9942 69.3425 48.1038 68.8027 48.3241C68.2629 48.5444 67.7728 48.8709 67.3616 49.2842C67.1591 49.4755 62.2916 54.0017 52.5041 54.0017C47.8653 54.0017 44.2203 51.5717 40.0016 48.7517C35.2503 45.583 29.8766 42.0017 22.5041 42.0017C17.1339 41.9482 11.8241 43.1379 6.99031 45.478C4.91907 46.4675 3.00784 47.7619 1.32031 49.318C0.474928 50.1634 -1.25971e-08 51.3099 0 52.5055C1.25971e-08 53.701 0.474928 54.8476 1.32031 55.693C2.16568 56.5384 3.31226 57.0133 4.5078 57.0133C5.70335 57.0133 6.84993 56.5384 7.6953 55.693C7.87906 55.5017 12.7166 51.0017 22.5041 51.0017C27.1428 51.0017 30.7878 53.4317 35.0066 56.2517C39.7578 59.4205 45.1316 63.0017 52.5041 63.0017C57.8742 63.0553 63.184 61.8655 68.0178 59.5255C70.089 58.5359 72.0003 57.2416 73.6878 55.6855C74.3179 55.0561 74.747 54.254 74.9209 53.3806C75.0949 52.5072 75.0057 51.6019 74.6649 50.7792C74.324 49.9565 73.7467 49.2534 73.006 48.759C72.2653 48.2646 71.3946 48.001 70.5041 48.0017ZM70.5041 27.0017C69.9211 26.9942 69.3425 27.1038 68.8027 27.3241C68.2629 27.5444 67.7728 27.8709 67.3616 28.2842C67.1591 28.4755 62.2916 33.0017 52.5041 33.0017C47.8653 33.0017 44.2203 30.5717 40.0016 27.7517C35.2503 24.583 29.8766 21.0017 22.5041 21.0017C17.1339 20.9482 11.8241 22.1379 6.99031 24.478C4.91907 25.4675 3.00784 26.7619 1.32031 28.318C0.474928 29.1634 -1.25971e-08 30.3099 0 31.5055C1.25971e-08 32.701 0.474928 33.8476 1.32031 34.693C2.16568 35.5384 3.31226 36.0133 4.5078 36.0133C5.70335 36.0133 6.84993 35.5384 7.6953 34.693C7.87906 34.5017 12.7166 30.0017 22.5041 30.0017C27.1428 30.0017 30.7878 32.4317 35.0066 35.2517C39.7578 38.4205 45.1316 42.0017 52.5041 42.0017C57.8742 42.0553 63.184 40.8655 68.0178 38.5255C70.089 37.5359 72.0003 36.2416 73.6878 34.6855C74.3179 34.0561 74.747 33.254 74.9209 32.3806C75.0949 31.5072 75.0057 30.6019 74.6649 29.7792C74.324 28.9565 73.7467 28.2534 73.006 27.759C72.2653 27.2646 71.3946 27.001 70.5041 27.0017Z" fill="#2A2C2D"/>
</svg>